<svg width="1900" height="1900" viewBox="0 0 1900 1900" fill="none" xmlns="http://www.w3.org/2000/svg">
<rect width="1900" height="1900" fill="black"/>
<path d="M1544.98 769.179C1530.67 726.604 1492.9 698 1450.99 698C1407.3 698 1369.02 728.227 1355.74 773.213C1352.6 783.861 1351 794.967 1351 806.225C1351 865.894 1395.86 914.439 1450.99 914.439C1506.14 914.439 1551 865.894 1551 806.225C1551 793.484 1548.97 781.017 1544.98 769.179ZM1450.99 890.371C1409.13 890.371 1375.06 852.623 1375.06 806.223C1375.06 798.302 1376.06 790.487 1378.02 782.944H1464.49L1476 757.785L1488.12 782.944H1523.97C1525.93 790.469 1526.93 798.27 1526.93 806.223C1526.93 852.623 1492.87 890.371 1450.99 890.371Z" fill="white"/>
<path d="M1385.62 915.543V984.248L1450.6 964.953L1515.58 984.248V915.543L1450.6 934.841L1385.62 915.543Z" fill="white"/>
<path d="M326.501 1171L270.151 986.9C267.001 976.75 264.551 974.3 257.201 974.3H246.001V938.6H358.701V974.3H349.251C341.551 974.3 339.451 976.4 342.601 986.55L370.601 1081.05L400.001 986.2C402.801 976.4 400.351 974.3 393.351 974.3H382.501V938.6H489.601V974.3H478.751C472.101 974.3 470.001 976.75 472.451 986.2L504.301 1083.15L532.651 986.55C535.101 976.4 532.651 974.3 525.651 974.3H512.701V938.6H600.901V974.3H590.051C582.001 974.3 579.201 976.4 576.401 986.9L520.751 1171H464.401L423.451 1050.95L382.851 1171H326.501ZM659.827 1028.9C654.227 1028.9 649.677 1029.6 646.177 1030.3C647.577 1034.5 648.627 1038.7 648.627 1043.6C648.627 1060.05 634.977 1072.3 616.427 1072.3C594.727 1072.3 582.477 1061.45 582.477 1041.5C582.477 1010.35 613.977 994.6 670.327 994.6C731.927 994.6 754.677 1010.7 754.677 1055.15V1124.45C754.677 1132.5 756.427 1135.3 761.327 1135.3H770.427V1171H702.527C694.477 1163.3 690.977 1156.65 687.127 1144.75C678.727 1162.6 655.277 1175.9 630.077 1175.9C596.827 1175.9 577.227 1156.3 577.227 1129.7C577.227 1081.4 636.727 1073.7 686.427 1064.95V1055.5C686.427 1037.3 679.077 1028.9 659.827 1028.9ZM658.427 1137.4C676.977 1137.4 686.427 1123.4 686.427 1103.1V1090.5C662.277 1094.35 640.927 1099.95 640.927 1119.9C640.927 1130.4 648.277 1137.4 658.427 1137.4ZM824.152 989.35C802.452 989.35 788.102 976.05 788.102 957.15C788.102 938.25 802.452 924.95 824.152 924.95C845.852 924.95 860.202 938.25 860.202 957.15C860.202 976.05 845.852 989.35 824.152 989.35ZM774.102 1171V1135.3H783.552C788.452 1135.3 790.202 1132.85 790.202 1124.45V1049.2C790.202 1038.7 788.452 1035.2 782.502 1035.2H774.102V999.5H815.052C833.952 999.5 849.702 997.4 858.802 995.3V1124.45C858.802 1132.85 860.552 1135.3 865.452 1135.3H874.202V1171H774.102ZM956.726 1175.9C911.576 1175.9 894.426 1158.75 894.426 1114.65V1035.2H874.826V1003.35C874.826 1003.35 883.226 1002.3 882.876 1002.3C898.626 998.8 908.776 992.5 911.926 976.05L916.126 948.75H961.976V999.5H990.676V1035.2H960.926V1115C960.926 1131.45 967.226 1136.35 979.476 1136.35C985.426 1136.35 989.626 1134.95 993.126 1133.9V1171C984.376 1173.45 970.726 1175.9 956.726 1175.9ZM1087.45 995.3V1030.3C1094.45 1005.45 1110.2 994.6 1132.25 994.6C1159.9 994.6 1176.7 1015.25 1176.7 1047.1C1176.7 1074.75 1161.3 1091.55 1137.85 1091.55C1121.75 1091.55 1108.45 1080.35 1108.45 1064.95C1108.45 1054.1 1113.35 1045.35 1122.1 1039.4C1119.65 1038 1116.5 1037.3 1113.35 1037.3C1095.5 1037.3 1088.5 1053.05 1087.45 1083.85V1124.45C1087.45 1133.9 1089.9 1135.3 1094.45 1135.3H1104.95V1171H1003.1V1135.3H1012.2C1016.75 1135.3 1019.2 1133.9 1019.2 1124.45V1047.8C1019.2 1038 1017.8 1035.2 1012.2 1035.2H1001.7V999.5H1044.05C1062.6 999.5 1078.35 997.4 1087.45 995.3ZM1362.82 1097.85H1251.17C1252.22 1123.4 1266.92 1135.3 1290.72 1135.3C1312.07 1135.3 1323.27 1124.1 1329.57 1110.8L1361.42 1133.55C1348.82 1157.7 1323.97 1175.9 1277.07 1175.9C1214.77 1175.9 1181.17 1138.8 1181.17 1084.9C1181.17 1030.65 1217.92 994.6 1275.32 994.6C1334.82 994.6 1362.82 1029.25 1362.82 1090.85V1097.85ZM1275.67 1029.95C1259.22 1029.95 1251.52 1040.8 1250.12 1068.45H1298.07C1297.37 1040.1 1290.72 1029.95 1275.67 1029.95ZM1374.35 1162.25V1118.15H1418.8V1141.6C1425.45 1143.35 1433.15 1144.05 1442.25 1144.05C1456.25 1144.05 1465 1139.15 1465 1128.65C1465 1116.75 1452.05 1113.95 1430.35 1109.4C1403.4 1103.1 1371.9 1092.95 1371.9 1055.15C1371.9 1017.7 1400.25 994.6 1451.35 994.6C1480.75 994.6 1505.6 1001.95 1518.9 1008.25V1050.95H1476.55V1029.6C1471.65 1027.85 1462.9 1026.45 1455.55 1026.45C1441.9 1026.45 1433.85 1032.05 1433.85 1041.15C1433.85 1053.4 1447.5 1054.8 1467.45 1059.35C1494.05 1065.65 1526.95 1075.8 1526.95 1114.65C1526.95 1153.15 1498.95 1175.9 1446.8 1175.9C1415.3 1175.9 1389.75 1167.85 1374.35 1162.25ZM1614 1175.9C1568.85 1175.9 1551.7 1158.75 1551.7 1114.65V1035.2H1532.1V1003.35C1532.1 1003.35 1540.5 1002.3 1540.15 1002.3C1555.9 998.8 1566.05 992.5 1569.2 976.05L1573.4 948.75H1619.25V999.5H1647.95V1035.2H1618.2V1115C1618.2 1131.45 1624.5 1136.35 1636.75 1136.35C1642.7 1136.35 1646.9 1134.95 1650.4 1133.9V1171C1641.65 1173.45 1628 1175.9 1614 1175.9Z" fill="white"/>
</svg>
